<?xml version="1.0" encoding="UTF-8" standalone="no"?>
<!DOCTYPE svg PUBLIC "-//W3C//DTD SVG 1.1//EN"
 "http://www.w3.org/Graphics/SVG/1.1/DTD/svg11.dtd">
<!-- Generated by graphviz version 2.26.3 (20100126.1600)
 -->
<!-- Title: controllers_diagram Pages: 1 -->
<svg width="2176pt" height="1799pt"
 viewBox="0.00 0.00 2176.18 1798.53" xmlns="http://www.w3.org/2000/svg" xmlns:xlink="http://www.w3.org/1999/xlink">
<g id="graph1" class="graph" transform="scale(1 1) rotate(0) translate(4 1794.53)">
<title>controllers_diagram</title>
<polygon fill="white" stroke="white" points="-4,5 -4,-1794.53 2173.18,-1794.53 2173.18,5 -4,5"/>
<!-- _diagram_info -->
<g id="node1" class="node"><title>_diagram_info</title>
<text text-anchor="start" x="1469" y="-78.3" font-family="Times Roman,serif" font-size="13.00">Controllers diagram</text>
<text text-anchor="start" x="1469" y="-61.3" font-family="Times Roman,serif" font-size="13.00">Date: Jun 23 2014 &#45; 06:10</text>
<text text-anchor="start" x="1469" y="-44.3" font-family="Times Roman,serif" font-size="13.00">Migration version: 104</text>
<text text-anchor="start" x="1469" y="-27.3" font-family="Times Roman,serif" font-size="13.00">Generated by RailRoady 1.1.1</text>
<text text-anchor="start" x="1469" y="-10.3" font-family="Times Roman,serif" font-size="13.00">http://railroady.prestonlee.com</text>
</g>
<!-- AccountsController -->
<g id="node2" class="node"><title>AccountsController</title>
<ellipse fill="none" stroke="black" cx="832.8" cy="-1176.34" rx="104.151" ry="18.3848"/>
<text text-anchor="middle" x="832.8" y="-1172.74" font-family="Times Roman,serif" font-size="14.00">AccountsController</text>
</g>
<!-- CommentsController -->
<g id="node3" class="node"><title>CommentsController</title>
<ellipse fill="none" stroke="black" cx="213.28" cy="-1716.66" rx="111.93" ry="18.3848"/>
<text text-anchor="middle" x="213.28" y="-1713.06" font-family="Times Roman,serif" font-size="14.00">CommentsController</text>
</g>
<!-- AuthorsController -->
<g id="node4" class="node"><title>AuthorsController</title>
<ellipse fill="none" stroke="black" cx="2042.73" cy="-692.556" rx="98.9949" ry="18.3848"/>
<text text-anchor="middle" x="2042.73" y="-688.956" font-family="Times Roman,serif" font-size="14.00">AuthorsController</text>
</g>
<!-- TagsController -->
<g id="node5" class="node"><title>TagsController</title>
<ellipse fill="none" stroke="black" cx="1994.23" cy="-1742.15" rx="82.0244" ry="18.3848"/>
<text text-anchor="middle" x="1994.23" y="-1738.55" font-family="Times Roman,serif" font-size="14.00">TagsController</text>
</g>
<!-- Admin::DashboardController -->
<g id="node6" class="node"><title>Admin::DashboardController</title>
<ellipse fill="none" stroke="black" cx="1344.07" cy="-658.131" rx="149.907" ry="18.3848"/>
<text text-anchor="middle" x="1344.07" y="-654.531" font-family="Times Roman,serif" font-size="14.00">Admin::DashboardController</text>
</g>
<!-- Admin::PostTypesController -->
<g id="node7" class="node"><title>Admin::PostTypesController</title>
<ellipse fill="none" stroke="black" cx="519.357" cy="-663.96" rx="145.163" ry="18.3848"/>
<text text-anchor="middle" x="519.357" y="-660.36" font-family="Times Roman,serif" font-size="14.00">Admin::PostTypesController</text>
</g>
<!-- Admin::ThemesController -->
<g id="node8" class="node"><title>Admin::ThemesController</title>
<ellipse fill="none" stroke="black" cx="824.087" cy="-227.091" rx="135.765" ry="18.3848"/>
<text text-anchor="middle" x="824.087" y="-223.491" font-family="Times Roman,serif" font-size="14.00">Admin::ThemesController</text>
</g>
<!-- Admin::SidebarController -->
<g id="node9" class="node"><title>Admin::SidebarController</title>
<ellipse fill="none" stroke="black" cx="2032.68" cy="-247.275" rx="133.851" ry="18.3848"/>
<text text-anchor="middle" x="2032.68" y="-243.675" font-family="Times Roman,serif" font-size="14.00">Admin::SidebarController</text>
</g>
<!-- Admin::UsersController -->
<g id="node10" class="node"><title>Admin::UsersController</title>
<ellipse fill="none" stroke="black" cx="1087.23" cy="-165.5" rx="123.951" ry="18.3848"/>
<text text-anchor="middle" x="1087.23" y="-161.9" font-family="Times Roman,serif" font-size="14.00">Admin::UsersController</text>
</g>
<!-- Admin::TagsController -->
<g id="node11" class="node"><title>Admin::TagsController</title>
<ellipse fill="none" stroke="black" cx="1328.23" cy="-273.303" rx="118.794" ry="18.3848"/>
<text text-anchor="middle" x="1328.23" y="-269.703" font-family="Times Roman,serif" font-size="14.00">Admin::TagsController</text>
</g>
<!-- Admin::BaseController -->
<g id="node12" class="node"><title>Admin::BaseController</title>
<ellipse fill="none" stroke="black" cx="1073.65" cy="-793.275" rx="120.915" ry="18.3848"/>
<text text-anchor="middle" x="1073.65" y="-789.675" font-family="Times Roman,serif" font-size="14.00">Admin::BaseController</text>
</g>
<!-- Admin::BaseController&#45;&gt;Admin::DashboardController -->
<g id="edge10" class="edge"><title>Admin::BaseController&#45;&gt;Admin::DashboardController</title>
<path fill="none" stroke="black" d="M1109.28,-775.468C1160.91,-749.665 1256.01,-702.138 1307.93,-676.193"/>
</g>
<!-- Admin::BaseController&#45;&gt;Admin::PostTypesController -->
<g id="edge12" class="edge"><title>Admin::BaseController&#45;&gt;Admin::PostTypesController</title>
<path fill="none" stroke="black" d="M1007.07,-777.741C901.499,-753.112 696.688,-705.331 589.149,-680.242"/>
</g>
<!-- Admin::BaseController&#45;&gt;Admin::ThemesController -->
<g id="edge14" class="edge"><title>Admin::BaseController&#45;&gt;Admin::ThemesController</title>
<path fill="none" stroke="black" d="M1063.71,-774.803C1041.29,-732.87 985.613,-627.033 944.999,-535.675 896.966,-427.627 848.135,-294.201 830.739,-245.764"/>
</g>
<!-- Admin::BaseController&#45;&gt;Admin::SidebarController -->
<g id="edge16" class="edge"><title>Admin::BaseController&#45;&gt;Admin::SidebarController</title>
<path fill="none" stroke="black" d="M1086.37,-774.561C1106.28,-746.349 1147.27,-692.559 1192.47,-658.028 1459.24,-454.247 1843.13,-311.708 1980.97,-264.406"/>
</g>
<!-- Admin::BaseController&#45;&gt;Admin::UsersController -->
<g id="edge18" class="edge"><title>Admin::BaseController&#45;&gt;Admin::UsersController</title>
<path fill="none" stroke="black" d="M1063.24,-774.636C1032.84,-719.931 946.269,-562.013 944.999,-535.675 938.086,-392.296 1036.78,-236.918 1073.64,-184.195"/>
</g>
<!-- Admin::BaseController&#45;&gt;Admin::TagsController -->
<g id="edge20" class="edge"><title>Admin::BaseController&#45;&gt;Admin::TagsController</title>
<path fill="none" stroke="black" d="M1087.67,-774.823C1118.35,-733.775 1192.33,-631.02 1238.19,-535.997 1280.41,-448.505 1311.95,-335.995 1323.47,-292.055"/>
</g>
<!-- Admin::ContentController -->
<g id="node13" class="node"><title>Admin::ContentController</title>
<ellipse fill="none" stroke="black" cx="138" cy="-290.195" rx="137.179" ry="18.3848"/>
<text text-anchor="middle" x="138" y="-286.595" font-family="Times Roman,serif" font-size="14.00">Admin::ContentController</text>
</g>
<!-- Admin::BaseController&#45;&gt;Admin::ContentController -->
<g id="edge24" class="edge"><title>Admin::BaseController&#45;&gt;Admin::ContentController</title>
<path fill="none" stroke="black" d="M1034.34,-775.661C961.001,-742.524 798.721,-667.892 665.829,-597.45 471.902,-494.656 246.484,-357.208 167.296,-308.358"/>
</g>
<!-- Admin::CacheController -->
<g id="node14" class="node"><title>Admin::CacheController</title>
<ellipse fill="none" stroke="black" cx="1631.34" cy="-589.731" rx="126.78" ry="18.3848"/>
<text text-anchor="middle" x="1631.34" y="-586.131" font-family="Times Roman,serif" font-size="14.00">Admin::CacheController</text>
</g>
<!-- Admin::BaseController&#45;&gt;Admin::CacheController -->
<g id="edge26" class="edge"><title>Admin::BaseController&#45;&gt;Admin::CacheController</title>
<path fill="none" stroke="black" d="M1134.12,-777.179C1217.02,-754.379 1370.02,-709.683 1495.67,-658.234 1532.17,-643.286 1572.31,-622.435 1599.39,-607.673"/>
</g>
<!-- Admin::SeoController -->
<g id="node15" class="node"><title>Admin::SeoController</title>
<ellipse fill="none" stroke="black" cx="1321.64" cy="-944.995" rx="115.966" ry="18.3848"/>
<text text-anchor="middle" x="1321.64" y="-941.395" font-family="Times Roman,serif" font-size="14.00">Admin::SeoController</text>
</g>
<!-- Admin::BaseController&#45;&gt;Admin::SeoController -->
<g id="edge28" class="edge"><title>Admin::BaseController&#45;&gt;Admin::SeoController</title>
<path fill="none" stroke="black" d="M1103.07,-811.275C1150.8,-840.475 1244.55,-897.833 1292.26,-927.018"/>
</g>
<!-- Admin::RedirectsController -->
<g id="node16" class="node"><title>Admin::RedirectsController</title>
<ellipse fill="none" stroke="black" cx="1027.01" cy="-1018.09" rx="142.128" ry="18.3848"/>
<text text-anchor="middle" x="1027.01" y="-1014.49" font-family="Times Roman,serif" font-size="14.00">Admin::RedirectsController</text>
</g>
<!-- Admin::BaseController&#45;&gt;Admin::RedirectsController -->
<g id="edge30" class="edge"><title>Admin::BaseController&#45;&gt;Admin::RedirectsController</title>
<path fill="none" stroke="black" d="M1069.75,-812.056C1060.95,-854.48 1039.62,-957.3 1030.86,-999.523"/>
</g>
<!-- Admin::TextfiltersController -->
<g id="node17" class="node"><title>Admin::TextfiltersController</title>
<ellipse fill="none" stroke="black" cx="1091.59" cy="-535.836" rx="145.163" ry="18.3848"/>
<text text-anchor="middle" x="1091.59" y="-532.236" font-family="Times Roman,serif" font-size="14.00">Admin::TextfiltersController</text>
</g>
<!-- Admin::BaseController&#45;&gt;Admin::TextfiltersController -->
<g id="edge32" class="edge"><title>Admin::BaseController&#45;&gt;Admin::TextfiltersController</title>
<path fill="none" stroke="black" d="M1074.94,-774.76C1078.24,-727.376 1086.98,-602.107 1090.29,-554.528"/>
</g>
<!-- Admin::ResourcesController -->
<g id="node18" class="node"><title>Admin::ResourcesController</title>
<ellipse fill="none" stroke="black" cx="1603.19" cy="-192.265" rx="145.872" ry="18.3848"/>
<text text-anchor="middle" x="1603.19" y="-188.665" font-family="Times Roman,serif" font-size="14.00">Admin::ResourcesController</text>
</g>
<!-- Admin::BaseController&#45;&gt;Admin::ResourcesController -->
<g id="edge34" class="edge"><title>Admin::BaseController&#45;&gt;Admin::ResourcesController</title>
<path fill="none" stroke="black" d="M1089.78,-774.89C1112.63,-748.862 1155.71,-699.789 1192.47,-658.028 1345.62,-484.034 1531.22,-273.775 1586.74,-210.89"/>
</g>
<!-- Admin::ProfilesController -->
<g id="node19" class="node"><title>Admin::ProfilesController</title>
<ellipse fill="none" stroke="black" cx="530.077" cy="-1038" rx="132.936" ry="18.3848"/>
<text text-anchor="middle" x="530.077" y="-1034.4" font-family="Times Roman,serif" font-size="14.00">Admin::ProfilesController</text>
</g>
<!-- Admin::BaseController&#45;&gt;Admin::ProfilesController -->
<g id="edge36" class="edge"><title>Admin::BaseController&#45;&gt;Admin::ProfilesController</title>
<path fill="none" stroke="black" d="M1047.7,-811.498C1019.51,-830.8 972.713,-861.399 929.642,-882.927 809.837,-942.81 660.969,-995.146 583.138,-1020.94"/>
</g>
<!-- Admin::PagesController -->
<g id="node20" class="node"><title>Admin::PagesController</title>
<ellipse fill="none" stroke="black" cx="137.506" cy="-811.901" rx="125.865" ry="18.3848"/>
<text text-anchor="middle" x="137.506" y="-808.301" font-family="Times Roman,serif" font-size="14.00">Admin::PagesController</text>
</g>
<!-- Admin::BaseController&#45;&gt;Admin::PagesController -->
<g id="edge38" class="edge"><title>Admin::BaseController&#45;&gt;Admin::PagesController</title>
<path fill="none" stroke="black" d="M953.661,-795.662C775.677,-799.203 443.327,-805.816 262.5,-809.414"/>
</g>
<!-- Admin::SettingsController -->
<g id="node21" class="node"><title>Admin::SettingsController</title>
<ellipse fill="none" stroke="black" cx="790.045" cy="-882.798" rx="137.886" ry="18.3848"/>
<text text-anchor="middle" x="790.045" y="-879.198" font-family="Times Roman,serif" font-size="14.00">Admin::SettingsController</text>
</g>
<!-- Admin::BaseController&#45;&gt;Admin::SettingsController -->
<g id="edge40" class="edge"><title>Admin::BaseController&#45;&gt;Admin::SettingsController</title>
<path fill="none" stroke="black" d="M1020.64,-810.008C970.298,-825.899 894.974,-849.676 844.243,-865.689"/>
</g>
<!-- Admin::CategoriesController -->
<g id="node22" class="node"><title>Admin::CategoriesController</title>
<ellipse fill="none" stroke="black" cx="817.423" cy="-597.631" rx="149.907" ry="18.3848"/>
<text text-anchor="middle" x="817.423" y="-594.031" font-family="Times Roman,serif" font-size="14.00">Admin::CategoriesController</text>
</g>
<!-- Admin::BaseController&#45;&gt;Admin::CategoriesController -->
<g id="edge42" class="edge"><title>Admin::BaseController&#45;&gt;Admin::CategoriesController</title>
<path fill="none" stroke="black" d="M1049.55,-774.869C1000.71,-737.581 890.588,-653.497 841.651,-616.131"/>
</g>
<!-- Admin::FeedbackController -->
<g id="node23" class="node"><title>Admin::FeedbackController</title>
<ellipse fill="none" stroke="black" cx="535.563" cy="-218.736" rx="142.836" ry="18.3848"/>
<text text-anchor="middle" x="535.563" y="-215.136" font-family="Times Roman,serif" font-size="14.00">Admin::FeedbackController</text>
</g>
<!-- Admin::BaseController&#45;&gt;Admin::FeedbackController -->
<g id="edge44" class="edge"><title>Admin::BaseController&#45;&gt;Admin::FeedbackController</title>
<path fill="none" stroke="black" d="M1066.39,-774.717C1051.62,-738.371 1015.5,-656.256 969.017,-597.813 839.897,-435.458 635.319,-287.247 562.438,-236.917"/>
</g>
<!-- ArticlesController -->
<g id="node24" class="node"><title>ArticlesController</title>
<ellipse fill="none" stroke="black" cx="1563.51" cy="-1654.01" rx="96.8736" ry="18.3848"/>
<text text-anchor="middle" x="1563.51" y="-1650.41" font-family="Times Roman,serif" font-size="14.00">ArticlesController</text>
</g>
<!-- ContentController -->
<g id="node25" class="node"><title>ContentController</title>
<ellipse fill="none" stroke="black" cx="1566.15" cy="-1210.49" rx="99.9096" ry="18.3848"/>
<text text-anchor="middle" x="1566.15" y="-1206.89" font-family="Times Roman,serif" font-size="14.00">ContentController</text>
</g>
<!-- ContentController&#45;&gt;AuthorsController -->
<g id="edge6" class="edge"><title>ContentController&#45;&gt;AuthorsController</title>
<path fill="none" stroke="black" d="M1583.11,-1192.06C1657.15,-1111.59 1951.59,-791.596 2025.72,-711.039"/>
</g>
<!-- ContentController&#45;&gt;ArticlesController -->
<g id="edge46" class="edge"><title>ContentController&#45;&gt;ArticlesController</title>
<path fill="none" stroke="black" d="M1566.04,-1229.26C1565.61,-1301.81 1564.05,-1563.36 1563.62,-1635.48"/>
</g>
<!-- ThemeController -->
<g id="node28" class="node"><title>ThemeController</title>
<ellipse fill="none" stroke="black" cx="2009.46" cy="-1340.44" rx="94.0452" ry="18.3848"/>
<text text-anchor="middle" x="2009.46" y="-1336.84" font-family="Times Roman,serif" font-size="14.00">ThemeController</text>
</g>
<!-- ContentController&#45;&gt;ThemeController -->
<g id="edge52" class="edge"><title>ContentController&#45;&gt;ThemeController</title>
<path fill="none" stroke="black" d="M1619.63,-1226.16C1705.18,-1251.24 1871.82,-1300.09 1956.83,-1325.01"/>
</g>
<!-- GroupingController -->
<g id="node30" class="node"><title>GroupingController</title>
<ellipse fill="none" stroke="black" cx="1217.3" cy="-1771.03" rx="104.86" ry="18.3848"/>
<text text-anchor="middle" x="1217.3" y="-1767.43" font-family="Times Roman,serif" font-size="14.00">GroupingController</text>
</g>
<!-- ContentController&#45;&gt;GroupingController -->
<g id="edge56" class="edge"><title>ContentController&#45;&gt;GroupingController</title>
<path fill="none" stroke="black" d="M1554.54,-1229.14C1501.4,-1314.53 1281.64,-1667.65 1228.78,-1752.59"/>
</g>
<!-- BackendController -->
<g id="node31" class="node"><title>BackendController</title>
<ellipse fill="none" stroke="black" cx="2022.19" cy="-1025.76" rx="101.116" ry="18.3848"/>
<text text-anchor="middle" x="2022.19" y="-1022.16" font-family="Times Roman,serif" font-size="14.00">BackendController</text>
</g>
<!-- ContentController&#45;&gt;BackendController -->
<g id="edge58" class="edge"><title>ContentController&#45;&gt;BackendController</title>
<path fill="none" stroke="black" d="M1607.83,-1193.61C1694.57,-1158.47 1893.64,-1077.83 1980.44,-1042.67"/>
</g>
<!-- ApplicationController -->
<g id="node26" class="node"><title>ApplicationController</title>
<ellipse fill="none" stroke="black" cx="1196.6" cy="-1167.77" rx="113.844" ry="18.3848"/>
<text text-anchor="middle" x="1196.6" y="-1164.17" font-family="Times Roman,serif" font-size="14.00">ApplicationController</text>
</g>
<!-- ApplicationController&#45;&gt;AccountsController -->
<g id="edge2" class="edge"><title>ApplicationController&#45;&gt;AccountsController</title>
<path fill="none" stroke="black" d="M1083.48,-1170.44C1036.34,-1171.55 981.977,-1172.83 935.948,-1173.91"/>
</g>
<!-- ApplicationController&#45;&gt;Admin::BaseController -->
<g id="edge22" class="edge"><title>ApplicationController&#45;&gt;Admin::BaseController</title>
<path fill="none" stroke="black" d="M1194.77,-1149.02C1191.66,-1120.36 1184.31,-1064.13 1170.61,-1018.14 1146.94,-938.688 1103.07,-849.806 1083.51,-811.959"/>
</g>
<!-- ApplicationController&#45;&gt;ContentController -->
<g id="edge48" class="edge"><title>ApplicationController&#45;&gt;ContentController</title>
<path fill="none" stroke="black" d="M1289.85,-1178.55C1348.65,-1185.35 1424,-1194.06 1481.15,-1200.66"/>
</g>
<!-- XmlController -->
<g id="node27" class="node"><title>XmlController</title>
<ellipse fill="none" stroke="black" cx="1615.44" cy="-902.443" rx="79.9031" ry="18.3848"/>
<text text-anchor="middle" x="1615.44" y="-898.843" font-family="Times Roman,serif" font-size="14.00">XmlController</text>
</g>
<!-- ApplicationController&#45;&gt;XmlController -->
<g id="edge50" class="edge"><title>ApplicationController&#45;&gt;XmlController</title>
<path fill="none" stroke="black" d="M1225.06,-1149.74C1301.74,-1101.16 1512,-967.971 1587.77,-919.974"/>
</g>
<!-- SetupController -->
<g id="node29" class="node"><title>SetupController</title>
<ellipse fill="none" stroke="black" cx="986.306" cy="-1425.2" rx="89.0955" ry="18.3848"/>
<text text-anchor="middle" x="986.306" y="-1421.6" font-family="Times Roman,serif" font-size="14.00">SetupController</text>
</g>
<!-- ApplicationController&#45;&gt;SetupController -->
<g id="edge54" class="edge"><title>ApplicationController&#45;&gt;SetupController</title>
<path fill="none" stroke="black" d="M1181.47,-1186.28C1142.67,-1233.78 1039.94,-1359.54 1001.29,-1406.85"/>
</g>
<!-- TextfilterController -->
<g id="node33" class="node"><title>TextfilterController</title>
<ellipse fill="none" stroke="black" cx="1298.17" cy="-1391.31" rx="103.945" ry="18.3848"/>
<text text-anchor="middle" x="1298.17" y="-1387.71" font-family="Times Roman,serif" font-size="14.00">TextfilterController</text>
</g>
<!-- ApplicationController&#45;&gt;TextfilterController -->
<g id="edge62" class="edge"><title>ApplicationController&#45;&gt;TextfilterController</title>
<path fill="none" stroke="black" d="M1205.08,-1186.44C1224.25,-1228.63 1270.71,-1330.87 1289.78,-1372.85"/>
</g>
<!-- FeedbackController -->
<g id="node35" class="node"><title>FeedbackController</title>
<ellipse fill="none" stroke="black" cx="596.818" cy="-1394.31" rx="104.86" ry="18.3848"/>
<text text-anchor="middle" x="596.818" y="-1390.71" font-family="Times Roman,serif" font-size="14.00">FeedbackController</text>
</g>
<!-- ApplicationController&#45;&gt;FeedbackController -->
<g id="edge66" class="edge"><title>ApplicationController&#45;&gt;FeedbackController</title>
<path fill="none" stroke="black" d="M1151.52,-1184.8C1040.09,-1226.88 752.718,-1335.43 641.604,-1377.4"/>
</g>
<!-- GroupingController&#45;&gt;TagsController -->
<g id="edge8" class="edge"><title>GroupingController&#45;&gt;TagsController</title>
<path fill="none" stroke="black" d="M1320.07,-1767.21C1476.48,-1761.39 1771.07,-1750.44 1913.32,-1745.15"/>
</g>
<!-- CategoriesController -->
<g id="node34" class="node"><title>CategoriesController</title>
<ellipse fill="none" stroke="black" cx="769.996" cy="-1760.57" rx="111.93" ry="18.3848"/>
<text text-anchor="middle" x="769.996" y="-1756.97" font-family="Times Roman,serif" font-size="14.00">CategoriesController</text>
</g>
<!-- GroupingController&#45;&gt;CategoriesController -->
<g id="edge64" class="edge"><title>GroupingController&#45;&gt;CategoriesController</title>
<path fill="none" stroke="black" d="M1113,-1768.59C1043.42,-1766.96 952.059,-1764.83 881.121,-1763.17"/>
</g>
<!-- TrackbacksController -->
<g id="node32" class="node"><title>TrackbacksController</title>
<ellipse fill="none" stroke="black" cx="146.573" cy="-1247.46" rx="113.137" ry="18.3848"/>
<text text-anchor="middle" x="146.573" y="-1243.86" font-family="Times Roman,serif" font-size="14.00">TrackbacksController</text>
</g>
<!-- FeedbackController&#45;&gt;CommentsController -->
<g id="edge4" class="edge"><title>FeedbackController&#45;&gt;CommentsController</title>
<path fill="none" stroke="black" d="M575.099,-1412.57C507.75,-1469.17 302.907,-1641.33 235.237,-1698.2"/>
</g>
<!-- FeedbackController&#45;&gt;TrackbacksController -->
<g id="edge60" class="edge"><title>FeedbackController&#45;&gt;TrackbacksController</title>
<path fill="none" stroke="black" d="M546.914,-1378.04C460.597,-1349.88 284.339,-1292.39 197.391,-1264.03"/>
</g>
</g>
</svg>
