<?xml version="1.0" encoding="UTF-8" standalone="no"?>
<!DOCTYPE svg PUBLIC "-//W3C//DTD SVG 1.1//EN"
 "http://www.w3.org/Graphics/SVG/1.1/DTD/svg11.dtd">
<!-- Generated by graphviz version 2.26.3 (20100126.1600)
 -->
<!-- Title: models_diagram Pages: 1 -->
<svg width="2963pt" height="534pt"
 viewBox="0.00 0.00 2963.00 534.00" xmlns="http://www.w3.org/2000/svg" xmlns:xlink="http://www.w3.org/1999/xlink">
<g id="graph1" class="graph" transform="scale(1 1) rotate(0) translate(4 530)">
<title>models_diagram</title>
<polygon fill="white" stroke="white" points="-4,5 -4,-530 2960,-530 2960,5 -4,5"/>
<!-- _diagram_info -->
<g id="node1" class="node"><title>_diagram_info</title>
<text text-anchor="start" x="8" y="-509.8" font-family="Times Roman,serif" font-size="13.00">Models diagram</text>
<text text-anchor="start" x="8" y="-492.8" font-family="Times Roman,serif" font-size="13.00">Date: Jun 23 2014 &#45; 06:10</text>
<text text-anchor="start" x="8" y="-475.8" font-family="Times Roman,serif" font-size="13.00">Migration version: 104</text>
<text text-anchor="start" x="8" y="-458.8" font-family="Times Roman,serif" font-size="13.00">Generated by RailRoady 1.1.1</text>
<text text-anchor="start" x="8" y="-441.8" font-family="Times Roman,serif" font-size="13.00">http://railroady.prestonlee.com</text>
</g>
<!-- Theme -->
<g id="node2" class="node"><title>Theme</title>
<polygon fill="none" stroke="black" points="255,-393 191,-393 191,-357 255,-357 255,-393"/>
<text text-anchor="middle" x="223" y="-371.4" font-family="Times Roman,serif" font-size="14.00">Theme</text>
</g>
<!-- Trackback -->
<g id="node3" class="node"><title>Trackback</title>
<ellipse fill="none" stroke="black" cx="718" cy="-19" rx="58.8978" ry="18.3848"/>
<text text-anchor="middle" x="718" y="-15.4" font-family="Times Roman,serif" font-size="14.00">Trackback</text>
</g>
<!-- Right -->
<g id="node4" class="node"><title>Right</title>
<ellipse fill="none" stroke="black" cx="542" cy="-375" rx="36.977" ry="18.3848"/>
<text text-anchor="middle" x="542" y="-371.4" font-family="Times Roman,serif" font-size="14.00">Right</text>
</g>
<!-- Profile -->
<g id="node12" class="node"><title>Profile</title>
<ellipse fill="none" stroke="black" cx="585" cy="-263" rx="41.9273" ry="18.3848"/>
<text text-anchor="middle" x="585" y="-259.4" font-family="Times Roman,serif" font-size="14.00">Profile</text>
</g>
<!-- Right&#45;&gt;Profile -->
<g id="edge6" class="edge"><title>Right&#45;&gt;Profile</title>
<path fill="none" stroke="#ab643d" d="M552.724,-347.067C559.296,-329.951 567.678,-308.117 574.254,-290.991"/>
<polygon fill="#ab643d" stroke="#ab643d" points="552.685,-347.17 544.9,-354.893 550.893,-351.838 549.101,-356.505 549.101,-356.505 549.101,-356.505 550.893,-351.838 553.302,-358.118 552.685,-347.17 552.685,-347.17"/>
<polygon fill="#ab643d" stroke="#ab643d" points="574.305,-290.858 582.09,-283.135 576.097,-286.19 577.889,-281.522 577.889,-281.522 577.889,-281.522 576.097,-286.19 573.688,-279.909 574.305,-290.858 574.305,-290.858"/>
</g>
<!-- BlogSweeper -->
<g id="node5" class="node"><title>BlogSweeper</title>
<polygon fill="none" stroke="black" points="1908,-393 1802,-393 1802,-357 1908,-357 1908,-393"/>
<text text-anchor="middle" x="1855" y="-371.4" font-family="Times Roman,serif" font-size="14.00">BlogSweeper</text>
</g>
<!-- Categorization -->
<g id="node6" class="node"><title>Categorization</title>
<ellipse fill="none" stroke="black" cx="477" cy="-19" rx="84.1457" ry="18.3848"/>
<text text-anchor="middle" x="477" y="-15.4" font-family="Times Roman,serif" font-size="14.00">Categorization</text>
</g>
<!-- Content -->
<g id="node7" class="node"><title>Content</title>
<ellipse fill="none" stroke="black" cx="1160" cy="-375" rx="51.1176" ry="18.3848"/>
<text text-anchor="middle" x="1160" y="-371.4" font-family="Times Roman,serif" font-size="14.00">Content</text>
</g>
<!-- Trigger -->
<g id="node13" class="node"><title>Trigger</title>
<ellipse fill="none" stroke="black" cx="1420" cy="-95" rx="44.7575" ry="18.3848"/>
<text text-anchor="middle" x="1420" y="-91.4" font-family="Times Roman,serif" font-size="14.00">Trigger</text>
</g>
<!-- Content&#45;&gt;Trigger -->
<g id="edge22" class="edge"><title>Content&#45;&gt;Trigger</title>
<path fill="none" stroke="#0b867c" d="M1211.29,-362.71C1256.42,-349.538 1321.26,-324.551 1363,-282 1405.55,-238.631 1416.46,-164.483 1419.18,-123.803"/>
<ellipse fill="none" stroke="#0b867c" cx="1207.23" cy="-363.862" rx="4.00001" ry="4.00001"/>
<polygon fill="#0b867c" stroke="#0b867c" points="1419.18,-123.73 1424.22,-113.99 1419.46,-118.738 1419.73,-113.745 1419.73,-113.745 1419.73,-113.745 1419.46,-118.738 1415.23,-113.5 1419.18,-123.73 1419.18,-123.73"/>
</g>
<!-- Article -->
<g id="node15" class="node"><title>Article</title>
<ellipse fill="none" stroke="black" cx="998" cy="-187" rx="43.1335" ry="18.3848"/>
<text text-anchor="middle" x="998" y="-183.4" font-family="Times Roman,serif" font-size="14.00">Article</text>
</g>
<!-- Content&#45;&gt;Article -->
<g id="edge62" class="edge"><title>Content&#45;&gt;Article</title>
<path fill="none" stroke="black" d="M1158.06,-356.284C1155.38,-339.483 1149.01,-315.193 1134,-300 1117.4,-283.201 1103.62,-295.147 1084,-282 1052.58,-260.948 1024.97,-225.963 1009.96,-204.833"/>
</g>
<!-- Page -->
<g id="node16" class="node"><title>Page</title>
<ellipse fill="none" stroke="black" cx="1161" cy="-263" rx="34.8574" ry="18.3848"/>
<text text-anchor="middle" x="1161" y="-259.4" font-family="Times Roman,serif" font-size="14.00">Page</text>
</g>
<!-- Content&#45;&gt;Page -->
<g id="edge64" class="edge"><title>Content&#45;&gt;Page</title>
<path fill="none" stroke="black" d="M1174.47,-357.217C1178.34,-351.433 1182,-344.755 1184,-338 1188.79,-321.805 1188.64,-316.24 1184,-300 1182.01,-293.018 1178.27,-286.069 1174.39,-280.111"/>
</g>
<!-- User -->
<g id="node21" class="node"><title>User</title>
<ellipse fill="none" stroke="black" cx="946" cy="-263" rx="33.9411" ry="18.3848"/>
<text text-anchor="middle" x="946" y="-259.4" font-family="Times Roman,serif" font-size="14.00">User</text>
</g>
<!-- Content&#45;&gt;User -->
<g id="edge16" class="edge"><title>Content&#45;&gt;User</title>
<path fill="none" stroke="#3631dc" d="M1103.81,-364.52C1084.96,-358.966 1064.74,-350.579 1049,-338 1033.58,-325.677 1040.71,-313.163 1026,-300 1014.32,-289.555 999.194,-281.546 985.238,-275.696"/>
<polygon fill="#3631dc" stroke="#3631dc" points="1103.86,-364.535 1112.32,-371.513 1108.69,-365.854 1113.51,-367.173 1113.51,-367.173 1113.51,-367.173 1108.69,-365.854 1114.7,-362.832 1103.86,-364.535 1103.86,-364.535"/>
<polygon fill="#3631dc" stroke="#3631dc" points="985.125,-275.652 977.47,-267.801 980.473,-273.82 975.821,-271.988 975.821,-271.988 975.821,-271.988 980.473,-273.82 974.172,-276.175 985.125,-275.652 985.125,-275.652"/>
<text text-anchor="middle" x="1091.5" y="-315.4" font-family="Times Roman,serif" font-size="14.00">notify_users</text>
</g>
<!-- Redirect -->
<g id="node22" class="node"><title>Redirect</title>
<ellipse fill="none" stroke="black" cx="1303" cy="-263" rx="51.1176" ry="18.3848"/>
<text text-anchor="middle" x="1303" y="-259.4" font-family="Times Roman,serif" font-size="14.00">Redirect</text>
</g>
<!-- Content&#45;&gt;Redirect -->
<g id="edge20" class="edge"><title>Content&#45;&gt;Redirect</title>
<path fill="none" stroke="#774e9f" d="M1205.23,-357.421C1216.47,-352.033 1228.12,-345.51 1238,-338 1255.94,-324.366 1272.52,-305.089 1284.44,-289.492"/>
<polygon fill="#774e9f" stroke="#774e9f" points="1205.02,-357.516 1194.05,-357.586 1200.47,-359.597 1195.93,-361.678 1195.93,-361.678 1195.93,-361.678 1200.47,-359.597 1197.8,-365.77 1205.02,-357.516 1205.02,-357.516"/>
<polygon fill="#774e9f" stroke="#774e9f" points="1284.59,-289.287 1294.17,-283.952 1287.57,-285.276 1290.56,-281.265 1290.56,-281.265 1290.56,-281.265 1287.57,-285.276 1286.95,-278.578 1284.59,-289.287 1284.59,-289.287"/>
</g>
<!-- Feedback -->
<g id="node23" class="node"><title>Feedback</title>
<ellipse fill="none" stroke="black" cx="939" cy="-95" rx="56.0679" ry="18.3848"/>
<text text-anchor="middle" x="939" y="-91.4" font-family="Times Roman,serif" font-size="14.00">Feedback</text>
</g>
<!-- Content&#45;&gt;Feedback -->
<g id="edge84" class="edge"><title>Content&#45;&gt;Feedback</title>
<path fill="none" stroke="black" d="M1164.69,-356.379C1167.66,-340.098 1169.12,-316.539 1158,-300 1146.9,-283.484 1131.88,-295.22 1117,-282 1073.07,-242.959 1089.16,-211.82 1050,-168 1032.23,-148.117 1024.2,-146.776 1002,-132 991.018,-124.691 978.562,-117.214 967.641,-110.912"/>
</g>
<!-- Notification -->
<g id="node28" class="node"><title>Notification</title>
<ellipse fill="none" stroke="black" cx="870" cy="-187" rx="67.1751" ry="18.3848"/>
<text text-anchor="middle" x="870" y="-183.4" font-family="Times Roman,serif" font-size="14.00">Notification</text>
</g>
<!-- Content&#45;&gt;Notification -->
<g id="edge14" class="edge"><title>Content&#45;&gt;Notification</title>
<path fill="none" stroke="#c247a5" d="M1102.2,-370.104C1031.19,-363.562 918.324,-351.249 904,-338 870.357,-306.882 866.45,-250.211 867.59,-215.843"/>
<ellipse fill="none" stroke="#c247a5" cx="1106.23" cy="-370.471" rx="4" ry="4"/>
<polygon fill="#c247a5" stroke="#c247a5" points="867.606,-215.516 872.601,-205.754 867.856,-210.522 868.106,-205.529 868.106,-205.529 868.106,-205.529 867.856,-210.522 863.612,-205.304 867.606,-215.516 867.606,-215.516"/>
</g>
<!-- Redirection -->
<g id="node32" class="node"><title>Redirection</title>
<ellipse fill="none" stroke="black" cx="1303" cy="-187" rx="65.9683" ry="18.3848"/>
<text text-anchor="middle" x="1303" y="-183.4" font-family="Times Roman,serif" font-size="14.00">Redirection</text>
</g>
<!-- Content&#45;&gt;Redirection -->
<g id="edge18" class="edge"><title>Content&#45;&gt;Redirection</title>
<path fill="none" stroke="#1be680" d="M1187.63,-352.185C1192.09,-347.761 1196.41,-342.952 1200,-338 1226.94,-300.789 1216.31,-281.39 1243,-244 1251.45,-232.166 1262.59,-220.78 1272.98,-211.338"/>
<ellipse fill="none" stroke="#1be680" cx="1184.43" cy="-355.209" rx="4.00002" ry="4.00002"/>
<polygon fill="#1be680" stroke="#1be680" points="1273.22,-211.13 1283.7,-207.898 1276.97,-207.826 1280.73,-204.521 1280.73,-204.521 1280.73,-204.521 1276.97,-207.826 1277.75,-201.144 1273.22,-211.13 1273.22,-211.13"/>
</g>
<!-- Article::States -->
<g id="node8" class="node"><title>Article::States</title>
<polygon fill="none" stroke="black" stroke-dasharray="1,5" points="2173,-497 2059,-497 2059,-461 2173,-461 2173,-497"/>
<text text-anchor="middle" x="2116" y="-475.4" font-family="Times Roman,serif" font-size="14.00">Article::States</text>
</g>
<!-- Comment -->
<g id="node9" class="node"><title>Comment</title>
<ellipse fill="none" stroke="black" cx="1023" cy="-19" rx="58.1882" ry="18.3848"/>
<text text-anchor="middle" x="1023" y="-15.4" font-family="Times Roman,serif" font-size="14.00">Comment</text>
</g>
<!-- Tag -->
<g id="node10" class="node"><title>Tag</title>
<ellipse fill="none" stroke="black" cx="816" cy="-319" rx="27.7881" ry="18.3848"/>
<text text-anchor="middle" x="816" y="-315.4" font-family="Times Roman,serif" font-size="14.00">Tag</text>
</g>
<!-- Tag&#45;&gt;Article -->
<g id="edge28" class="edge"><title>Tag&#45;&gt;Article</title>
<path fill="none" stroke="#747767" d="M839.75,-296.572C856.743,-281.02 880.501,-260.265 903,-244 921.716,-230.47 943.774,-217.093 961.922,-206.701"/>
<polygon fill="#747767" stroke="#747767" points="839.33,-296.959 828.932,-300.44 835.658,-300.352 831.986,-303.745 831.986,-303.745 831.986,-303.745 835.658,-300.352 835.04,-307.051 839.33,-296.959 839.33,-296.959"/>
<polygon fill="#747767" stroke="#747767" points="962.314,-206.479 973.233,-205.471 966.665,-204.017 971.017,-201.554 971.017,-201.554 971.017,-201.554 966.665,-204.017 968.801,-197.638 962.314,-206.479 962.314,-206.479"/>
</g>
<!-- TextFilter -->
<g id="node11" class="node"><title>TextFilter</title>
<ellipse fill="none" stroke="black" cx="692" cy="-375" rx="56.7776" ry="18.3848"/>
<text text-anchor="middle" x="692" y="-371.4" font-family="Times Roman,serif" font-size="14.00">TextFilter</text>
</g>
<!-- Blog -->
<g id="node14" class="node"><title>Blog</title>
<ellipse fill="none" stroke="black" cx="876" cy="-375" rx="33.234" ry="18.3848"/>
<text text-anchor="middle" x="876" y="-371.4" font-family="Times Roman,serif" font-size="14.00">Blog</text>
</g>
<!-- Article&#45;&gt;Trackback -->
<g id="edge44" class="edge"><title>Article&#45;&gt;Trackback</title>
<path fill="none" stroke="#027961" d="M959.23,-171.523C954.818,-170.155 950.346,-168.937 946,-168 919.642,-162.319 724.392,-167.641 704,-150 675.124,-125.02 689.86,-76.9148 703.609,-46.4658"/>
<ellipse fill="none" stroke="#027961" cx="963.268" cy="-172.86" rx="4.00001" ry="4.00001"/>
<polygon fill="#027961" stroke="#027961" points="703.694,-46.286 712.047,-39.1812 705.838,-41.7689 707.982,-37.2518 707.982,-37.2518 707.982,-37.2518 705.838,-41.7689 703.917,-35.3224 703.694,-46.286 703.694,-46.286"/>
</g>
<!-- Article&#45;&gt;Trackback -->
<g id="edge58" class="edge"><title>Article&#45;&gt;Trackback</title>
<path fill="none" stroke="#4bc868" d="M958.777,-171.808C954.5,-170.41 950.181,-169.106 946,-168 849.082,-142.374 789.811,-192.131 727,-114 712.238,-95.6379 711.1,-68.3602 713.004,-47.7387"/>
<ellipse fill="none" stroke="#4bc868" cx="962.609" cy="-173.114" rx="4.00001" ry="4.00001"/>
<polygon fill="#4bc868" stroke="#4bc868" points="713.024,-47.5723 718.689,-38.183 713.623,-42.6083 714.222,-37.6442 714.222,-37.6442 714.222,-37.6442 713.623,-42.6083 709.754,-37.1055 713.024,-47.5723 713.024,-47.5723"/>
<text text-anchor="middle" x="800.5" y="-91.4" font-family="Times Roman,serif" font-size="14.00">published_trackbacks</text>
</g>
<!-- Article&#45;&gt;Categorization -->
<g id="edge50" class="edge"><title>Article&#45;&gt;Categorization</title>
<path fill="none" stroke="#a37df3" d="M959.234,-171.502C954.822,-170.139 950.348,-168.927 946,-168 889.79,-156.02 740.218,-174.007 688,-150 646.025,-130.702 653.338,-101.778 615,-76 590.966,-59.8402 561.626,-46.9287 536.188,-37.5082"/>
<ellipse fill="none" stroke="#a37df3" cx="963.273" cy="-172.837" rx="4.00001" ry="4.00001"/>
<polygon fill="#a37df3" stroke="#a37df3" points="536.056,-37.4608 528.175,-29.8359 531.352,-35.765 526.649,-34.0692 526.649,-34.0692 526.649,-34.0692 531.352,-35.765 525.123,-38.3025 536.056,-37.4608 536.056,-37.4608"/>
</g>
<!-- Article&#45;&gt;Comment -->
<g id="edge54" class="edge"><title>Article&#45;&gt;Comment</title>
<path fill="none" stroke="#7a3029" d="M1001.98,-160.225C1006.56,-129.453 1014.05,-79.1502 1018.74,-47.6215"/>
<ellipse fill="none" stroke="#7a3029" cx="1001.36" cy="-164.423" rx="4.00001" ry="4.00001"/>
<polygon fill="#7a3029" stroke="#7a3029" points="1018.74,-47.5953 1024.67,-38.3666 1019.48,-42.6498 1020.22,-37.7042 1020.22,-37.7042 1020.22,-37.7042 1019.48,-42.6498 1015.77,-37.0418 1018.74,-47.5953 1018.74,-47.5953"/>
</g>
<!-- Article&#45;&gt;Comment -->
<g id="edge56" class="edge"><title>Article&#45;&gt;Comment</title>
<path fill="none" stroke="#060f9f" d="M1013.66,-161.902C1015.67,-158.013 1017.53,-153.968 1019,-150 1033.63,-110.442 1037.02,-97.8756 1032,-56 1031.67,-53.2637 1031.21,-50.4374 1030.67,-47.623"/>
<ellipse fill="none" stroke="#060f9f" cx="1011.62" cy="-165.62" rx="4.00002" ry="4.00002"/>
<polygon fill="#060f9f" stroke="#060f9f" points="1030.63,-47.4254 1032.85,-36.6869 1029.54,-42.5447 1028.46,-37.6639 1028.46,-37.6639 1028.46,-37.6639 1029.54,-42.5447 1024.06,-38.6409 1030.63,-47.4254 1030.63,-47.4254"/>
<text text-anchor="middle" x="1107" y="-91.4" font-family="Times Roman,serif" font-size="14.00">published_comments</text>
</g>
<!-- Article&#45;&gt;Trigger -->
<g id="edge40" class="edge"><title>Article&#45;&gt;Trigger</title>
<path fill="none" stroke="#f88681" d="M1044.6,-177.085C1109.82,-163.176 1232,-136.991 1336,-114 1347.18,-111.529 1359.19,-108.836 1370.52,-106.275"/>
<ellipse fill="none" stroke="#f88681" cx="1040.46" cy="-177.967" rx="4.00001" ry="4.00001"/>
<polygon fill="#f88681" stroke="#f88681" points="1370.53,-106.275 1381.27,-108.457 1375.4,-105.171 1380.28,-104.068 1380.28,-104.068 1380.28,-104.068 1375.4,-105.171 1379.29,-99.6789 1370.53,-106.275 1370.53,-106.275"/>
</g>
<!-- Resource -->
<g id="node20" class="node"><title>Resource</title>
<ellipse fill="none" stroke="black" cx="1656" cy="-95" rx="55.8614" ry="18.3848"/>
<text text-anchor="middle" x="1656" y="-91.4" font-family="Times Roman,serif" font-size="14.00">Resource</text>
</g>
<!-- Article&#45;&gt;Resource -->
<g id="edge48" class="edge"><title>Article&#45;&gt;Resource</title>
<path fill="none" stroke="#327af9" d="M1047.21,-180.12C1165.19,-163.624 1464.02,-121.842 1594.01,-103.667"/>
<ellipse fill="none" stroke="#327af9" cx="1043.12" cy="-180.691" rx="4.00001" ry="4.00001"/>
<polygon fill="#327af9" stroke="#327af9" points="1594.29,-103.628 1604.82,-106.7 1599.24,-102.935 1604.2,-102.243 1604.2,-102.243 1604.2,-102.243 1599.24,-102.935 1603.57,-97.7864 1594.29,-103.628 1594.29,-103.628"/>
</g>
<!-- Article&#45;&gt;Feedback -->
<g id="edge46" class="edge"><title>Article&#45;&gt;Feedback</title>
<path fill="none" stroke="#f1b1eb" d="M994.706,-160.256C992.662,-150.798 989.353,-140.427 984,-132 980.949,-127.198 977.067,-122.72 972.865,-118.655"/>
<ellipse fill="none" stroke="#f1b1eb" cx="995.464" cy="-164.327" rx="4.00001" ry="4.00001"/>
<polygon fill="#f1b1eb" stroke="#f1b1eb" points="972.58,-118.405 968.038,-108.424 968.824,-115.104 965.068,-111.804 965.068,-111.804 965.068,-111.804 968.824,-115.104 962.098,-115.185 972.58,-118.405 972.58,-118.405"/>
</g>
<!-- Article&#45;&gt;Feedback -->
<g id="edge60" class="edge"><title>Article&#45;&gt;Feedback</title>
<path fill="none" stroke="#a9451a" d="M958.27,-171.694C954.157,-170.348 950.014,-169.086 946,-168 902.408,-156.207 874.966,-184.645 846,-150 840.869,-143.863 841.509,-138.62 846,-132 851.234,-124.285 868.417,-116.538 886.614,-110.14"/>
<ellipse fill="none" stroke="#a9451a" cx="962.315" cy="-173.074" rx="4.00001" ry="4.00001"/>
<polygon fill="#a9451a" stroke="#a9451a" points="886.687,-110.116 897.601,-111.19 891.426,-108.52 896.165,-106.925 896.165,-106.925 896.165,-106.925 891.426,-108.52 894.729,-102.66 886.687,-110.116 886.687,-110.116"/>
<text text-anchor="middle" x="913" y="-137.4" font-family="Times Roman,serif" font-size="14.00">published_feedback</text>
</g>
<!-- Ping -->
<g id="node24" class="node"><title>Ping</title>
<ellipse fill="none" stroke="black" cx="1294" cy="-95" rx="33.234" ry="18.3848"/>
<text text-anchor="middle" x="1294" y="-91.4" font-family="Times Roman,serif" font-size="14.00">Ping</text>
</g>
<!-- Article&#45;&gt;Ping -->
<g id="edge42" class="edge"><title>Article&#45;&gt;Ping</title>
<path fill="none" stroke="#112d4f" d="M1041.06,-173.618C1098.69,-155.705 1200.05,-124.2 1255.35,-107.013"/>
<ellipse fill="none" stroke="#112d4f" cx="1036.94" cy="-174.898" rx="4.00001" ry="4.00001"/>
<polygon fill="#112d4f" stroke="#112d4f" points="1255.57,-106.945 1266.45,-108.274 1260.34,-105.461 1265.12,-103.977 1265.12,-103.977 1265.12,-103.977 1260.34,-105.461 1263.78,-99.6798 1255.57,-106.945 1255.57,-106.945"/>
</g>
<!-- Category -->
<g id="node27" class="node"><title>Category</title>
<ellipse fill="none" stroke="black" cx="477" cy="-95" rx="56.0679" ry="18.3848"/>
<text text-anchor="middle" x="477" y="-91.4" font-family="Times Roman,serif" font-size="14.00">Category</text>
</g>
<!-- Article&#45;&gt;Category -->
<g id="edge52" class="edge"><title>Article&#45;&gt;Category</title>
<path fill="none" stroke="#dea2a5" d="M957.257,-170.842C953.492,-169.736 949.701,-168.761 946,-168 803.862,-138.782 761.886,-180.415 620,-150 584.404,-142.37 545.996,-127.178 517.958,-114.691"/>
<polygon fill="#dea2a5" stroke="#dea2a5" points="957.571,-170.943 965.704,-178.299 962.329,-172.48 967.087,-174.016 967.087,-174.016 967.087,-174.016 962.329,-172.48 968.47,-169.734 957.571,-170.943 957.571,-170.943"/>
<polygon fill="#dea2a5" stroke="#dea2a5" points="517.603,-114.53 510.351,-106.304 513.048,-112.467 508.494,-110.403 508.494,-110.403 508.494,-110.403 513.048,-112.467 506.637,-114.502 517.603,-114.53 517.603,-114.53"/>
</g>
<!-- EmailNotifier -->
<g id="node17" class="node"><title>EmailNotifier</title>
<polygon fill="none" stroke="black" points="2310,-393 2206,-393 2206,-357 2310,-357 2310,-393"/>
<text text-anchor="middle" x="2258" y="-371.4" font-family="Times Roman,serif" font-size="14.00">EmailNotifier</text>
</g>
<!-- Feedback::States -->
<g id="node18" class="node"><title>Feedback::States</title>
<polygon fill="none" stroke="black" stroke-dasharray="1,5" points="2595,-497 2461,-497 2461,-461 2595,-461 2595,-497"/>
<text text-anchor="middle" x="2528" y="-475.4" font-family="Times Roman,serif" font-size="14.00">Feedback::States</text>
</g>
<!-- PageCache -->
<g id="node19" class="node"><title>PageCache</title>
<polygon fill="none" stroke="black" points="365,-393 273,-393 273,-357 365,-357 365,-393"/>
<text text-anchor="middle" x="319" y="-371.4" font-family="Times Roman,serif" font-size="14.00">PageCache</text>
</g>
<!-- User&#45;&gt;Content -->
<g id="edge74" class="edge"><title>User&#45;&gt;Content</title>
<path fill="none" stroke="#b9fc71" d="M921.298,-286.839C918.319,-290.932 915.725,-295.369 914,-300 908.105,-315.827 902.982,-325.2 914,-338 925.993,-351.932 1030.85,-363.698 1099.74,-370.017"/>
<polygon fill="#b9fc71" stroke="#b9fc71" points="921.428,-286.681 931.267,-281.838 924.613,-282.826 927.798,-278.972 927.798,-278.972 927.798,-278.972 924.613,-282.826 924.328,-276.106 921.428,-286.681 921.428,-286.681"/>
<polygon fill="#b9fc71" stroke="#b9fc71" points="1100.08,-370.049 1109.64,-375.429 1105.06,-370.498 1110.04,-370.947 1110.04,-370.947 1110.04,-370.947 1105.06,-370.498 1110.45,-366.465 1100.08,-370.049 1100.08,-370.049"/>
<text text-anchor="middle" x="968" y="-315.4" font-family="Times Roman,serif" font-size="14.00">notify_contents</text>
</g>
<!-- User&#45;&gt;Article -->
<g id="edge76" class="edge"><title>User&#45;&gt;Article</title>
<path fill="none" stroke="#7166a3" d="M962.789,-238.463C968.296,-230.413 974.437,-221.438 980.029,-213.266"/>
<ellipse fill="none" stroke="#7166a3" cx="960.319" cy="-242.072" rx="4.00002" ry="4.00002"/>
<polygon fill="#7166a3" stroke="#7166a3" points="980.178,-213.048 989.539,-207.336 983.001,-208.921 985.825,-204.795 985.825,-204.795 985.825,-204.795 983.001,-208.921 982.111,-202.254 980.178,-213.048 980.178,-213.048"/>
</g>
<!-- User&#45;&gt;Notification -->
<g id="edge72" class="edge"><title>User&#45;&gt;Notification</title>
<path fill="none" stroke="#926af1" d="M923.801,-240.801C914.83,-231.83 904.429,-221.429 895.177,-212.177"/>
<ellipse fill="none" stroke="#926af1" cx="926.681" cy="-243.681" rx="4.00002" ry="4.00002"/>
<polygon fill="#926af1" stroke="#926af1" points="895.124,-212.124 891.235,-201.871 891.589,-208.589 888.053,-205.053 888.053,-205.053 888.053,-205.053 891.589,-208.589 884.871,-208.235 895.124,-212.124 895.124,-212.124"/>
</g>
<!-- Redirect&#45;&gt;Redirection -->
<g id="edge80" class="edge"><title>Redirect&#45;&gt;Redirection</title>
<path fill="none" stroke="#3539c2" d="M1303,-236.073C1303,-229.449 1303,-222.332 1303,-215.63"/>
<ellipse fill="none" stroke="#3539c2" cx="1303" cy="-240.213" rx="4" ry="4"/>
<polygon fill="#3539c2" stroke="#3539c2" points="1303,-215.57 1307.5,-205.57 1303,-210.57 1303,-205.57 1303,-205.57 1303,-205.57 1303,-210.57 1298.5,-205.57 1303,-215.57 1303,-215.57"/>
</g>
<!-- Feedback&#45;&gt;Trackback -->
<g id="edge4" class="edge"><title>Feedback&#45;&gt;Trackback</title>
<path fill="none" stroke="black" d="M899.998,-81.5877C860.098,-67.8661 798.4,-46.6489 758.103,-32.7912"/>
</g>
<!-- Feedback&#45;&gt;Comment -->
<g id="edge26" class="edge"><title>Feedback&#45;&gt;Comment</title>
<path fill="none" stroke="black" d="M958.482,-77.373C972.053,-65.0951 990.076,-48.7884 1003.62,-36.5314"/>
</g>
<!-- WebNotifier -->
<g id="node25" class="node"><title>WebNotifier</title>
<polygon fill="none" stroke="black" points="2426,-393 2328,-393 2328,-357 2426,-357 2426,-393"/>
<text text-anchor="middle" x="2377" y="-371.4" font-family="Times Roman,serif" font-size="14.00">WebNotifier</text>
</g>
<!-- NotificationMailer -->
<g id="node26" class="node"><title>NotificationMailer</title>
<polygon fill="none" stroke="black" points="2783,-393 2647,-393 2647,-357 2783,-357 2783,-393"/>
<text text-anchor="middle" x="2715" y="-371.4" font-family="Times Roman,serif" font-size="14.00">NotificationMailer</text>
</g>
<!-- Category&#45;&gt;Categorization -->
<g id="edge94" class="edge"><title>Category&#45;&gt;Categorization</title>
<path fill="none" stroke="#4aaf09" d="M477,-68.0731C477,-61.4485 477,-54.332 477,-47.6302"/>
<ellipse fill="none" stroke="#4aaf09" cx="477" cy="-72.2135" rx="4" ry="4"/>
<polygon fill="#4aaf09" stroke="#4aaf09" points="477,-47.5704 481.5,-37.5704 477,-42.5704 477,-37.5704 477,-37.5704 477,-37.5704 477,-42.5704 472.5,-37.5705 477,-47.5704 477,-47.5704"/>
</g>
<!-- Category&#45;&gt;Category -->
<g id="edge92" class="edge"><title>Category&#45;&gt;Category</title>
<path fill="none" stroke="#51271b" d="M536.921,-101.381C545.351,-100.341 551,-98.2146 551,-95 551,-92.0776 546.332,-90.0542 539.149,-88.9298"/>
<ellipse fill="none" stroke="#51271b" cx="532.856" cy="-101.7" rx="4" ry="4"/>
<polygon fill="#51271b" stroke="#51271b" points="538.827,-88.9003 529.28,-83.5052 533.848,-88.4433 528.869,-87.9863 528.869,-87.9863 528.869,-87.9863 533.848,-88.4433 528.457,-92.4675 538.827,-88.9003 538.827,-88.9003"/>
<text text-anchor="middle" x="578.5" y="-91.4" font-family="Times Roman,serif" font-size="14.00">children</text>
</g>
<!-- Sidebar -->
<g id="node29" class="node"><title>Sidebar</title>
<ellipse fill="none" stroke="black" cx="1572" cy="-375" rx="48.0833" ry="18.3848"/>
<text text-anchor="middle" x="1572" y="-371.4" font-family="Times Roman,serif" font-size="14.00">Sidebar</text>
</g>
<!-- PostType -->
<g id="node30" class="node"><title>PostType</title>
<ellipse fill="none" stroke="black" cx="1692" cy="-375" rx="53.9477" ry="18.3848"/>
<text text-anchor="middle" x="1692" y="-371.4" font-family="Times Roman,serif" font-size="14.00">PostType</text>
</g>
<!-- ConfigManager -->
<g id="node31" class="node"><title>ConfigManager</title>
<polygon fill="none" stroke="black" stroke-dasharray="1,5" points="2955,-497 2835,-497 2835,-461 2955,-461 2955,-497"/>
<text text-anchor="middle" x="2895" y="-475.4" font-family="Times Roman,serif" font-size="14.00">ConfigManager</text>
</g>
<!-- Object -->
<g id="node33" class="node"><title>Object</title>
<ellipse fill="none" stroke="black" cx="271" cy="-479" rx="43.1335" ry="18.3848"/>
<text text-anchor="middle" x="271" y="-475.4" font-family="Times Roman,serif" font-size="14.00">Object</text>
</g>
<!-- Object&#45;&gt;Theme -->
<g id="edge2" class="edge"><title>Object&#45;&gt;Theme</title>
<path fill="none" stroke="black" d="M262.419,-460.407C253.628,-441.36 240.051,-411.943 231.346,-393.084"/>
</g>
<!-- Object&#45;&gt;PageCache -->
<g id="edge68" class="edge"><title>Object&#45;&gt;PageCache</title>
<path fill="none" stroke="black" d="M279.581,-460.407C288.372,-441.36 301.949,-411.943 310.654,-393.084"/>
</g>
<!-- ActiveRecord::Base -->
<g id="node37" class="node"><title>ActiveRecord::Base</title>
<ellipse fill="none" stroke="black" cx="937" cy="-479" rx="104.151" ry="18.3848"/>
<text text-anchor="middle" x="937" y="-475.4" font-family="Times Roman,serif" font-size="14.00">ActiveRecord::Base</text>
</g>
<!-- ActiveRecord::Base&#45;&gt;Right -->
<g id="edge8" class="edge"><title>ActiveRecord::Base&#45;&gt;Right</title>
<path fill="none" stroke="black" d="M839.242,-472.659C768.349,-465.214 671.535,-449.053 593,-414 580.786,-408.548 568.816,-399.638 559.546,-391.71"/>
</g>
<!-- ActiveRecord::Base&#45;&gt;Categorization -->
<g id="edge12" class="edge"><title>ActiveRecord::Base&#45;&gt;Categorization</title>
<path fill="none" stroke="black" d="M844.101,-470.633C688.728,-455.375 393,-420.373 393,-375 393,-375 393,-375 393,-95 393,-68.2537 416.707,-48.4761 438.932,-35.8115"/>
</g>
<!-- ActiveRecord::Base&#45;&gt;Content -->
<g id="edge24" class="edge"><title>ActiveRecord::Base&#45;&gt;Content</title>
<path fill="none" stroke="black" d="M974.074,-461.71C1017.3,-441.552 1087.98,-408.586 1128.61,-389.64"/>
</g>
<!-- ActiveRecord::Base&#45;&gt;Tag -->
<g id="edge30" class="edge"><title>ActiveRecord::Base&#45;&gt;Tag</title>
<path fill="none" stroke="black" d="M906.222,-461.309C882.909,-446.321 851.929,-422.712 834,-394 823.219,-376.736 818.895,-353.532 817.161,-337.529"/>
</g>
<!-- ActiveRecord::Base&#45;&gt;TextFilter -->
<g id="edge32" class="edge"><title>ActiveRecord::Base&#45;&gt;TextFilter</title>
<path fill="none" stroke="black" d="M887.477,-462.647C852.229,-450.492 804.038,-432.816 763,-414 748.299,-407.259 732.478,-398.705 719.51,-391.326"/>
</g>
<!-- ActiveRecord::Base&#45;&gt;Profile -->
<g id="edge34" class="edge"><title>ActiveRecord::Base&#45;&gt;Profile</title>
<path fill="none" stroke="black" d="M859.648,-466.564C778.83,-452.097 659.244,-426.051 626,-394 594.776,-363.896 587.226,-310.385 585.47,-281.964"/>
</g>
<!-- ActiveRecord::Base&#45;&gt;Trigger -->
<g id="edge36" class="edge"><title>ActiveRecord::Base&#45;&gt;Trigger</title>
<path fill="none" stroke="black" d="M1030.88,-471.03C1190.1,-456.237 1496,-421.735 1496,-375 1496,-375 1496,-375 1496,-187 1496,-154.267 1467.05,-126.894 1444.89,-110.734"/>
</g>
<!-- ActiveRecord::Base&#45;&gt;Blog -->
<g id="edge38" class="edge"><title>ActiveRecord::Base&#45;&gt;Blog</title>
<path fill="none" stroke="black" d="M926.094,-460.407C914.854,-441.243 897.457,-411.582 886.404,-392.738"/>
</g>
<!-- ActiveRecord::Base&#45;&gt;Resource -->
<g id="edge70" class="edge"><title>ActiveRecord::Base&#45;&gt;Resource</title>
<path fill="none" stroke="black" d="M1040.47,-476.734C1264.41,-470.452 1774,-448.123 1774,-375 1774,-375 1774,-375 1774,-187 1774,-146.736 1730.74,-121.503 1696.61,-107.859"/>
</g>
<!-- ActiveRecord::Base&#45;&gt;User -->
<g id="edge78" class="edge"><title>ActiveRecord::Base&#45;&gt;User</title>
<path fill="none" stroke="black" d="M936.994,-460.279C936.354,-435.45 932.974,-390.722 918,-356 913.987,-346.694 907.289,-347.586 904,-338 898.519,-322.025 897.047,-315.391 904,-300 908.161,-290.79 915.872,-282.957 923.563,-276.901"/>
</g>
<!-- ActiveRecord::Base&#45;&gt;Redirect -->
<g id="edge82" class="edge"><title>ActiveRecord::Base&#45;&gt;Redirect</title>
<path fill="none" stroke="black" d="M1015.79,-466.917C1075.31,-455.147 1157.19,-433.126 1220,-394 1248.83,-376.042 1253.67,-366.592 1272,-338 1283.48,-320.091 1292.21,-297.215 1297.43,-281.463"/>
</g>
<!-- ActiveRecord::Base&#45;&gt;Ping -->
<g id="edge86" class="edge"><title>ActiveRecord::Base&#45;&gt;Ping</title>
<path fill="none" stroke="black" d="M1028.05,-470.029C1177.39,-454.07 1458,-418.322 1458,-375 1458,-375 1458,-375 1458,-225 1458,-157.24 1370.96,-119.213 1323.7,-103.56"/>
</g>
<!-- ActiveRecord::Base&#45;&gt;Category -->
<g id="edge96" class="edge"><title>ActiveRecord::Base&#45;&gt;Category</title>
<path fill="none" stroke="black" d="M851.824,-468.357C718.853,-450.57 477,-412.996 477,-375 477,-375 477,-375 477,-187 477,-161.604 477,-132.265 477,-113.678"/>
</g>
<!-- ActiveRecord::Base&#45;&gt;Notification -->
<g id="edge98" class="edge"><title>ActiveRecord::Base&#45;&gt;Notification</title>
<path fill="none" stroke="black" d="M901.897,-461.513C862.365,-439.268 801.704,-396.585 787,-338 773.819,-285.483 820.768,-231.745 849.408,-204.765"/>
</g>
<!-- ActiveRecord::Base&#45;&gt;Sidebar -->
<g id="edge100" class="edge"><title>ActiveRecord::Base&#45;&gt;Sidebar</title>
<path fill="none" stroke="black" d="M1035.74,-473.117C1175.89,-463.864 1424.91,-443.834 1510,-414 1524.64,-408.867 1539.41,-399.769 1550.86,-391.651"/>
</g>
<!-- ActiveRecord::Base&#45;&gt;PostType -->
<g id="edge102" class="edge"><title>ActiveRecord::Base&#45;&gt;PostType</title>
<path fill="none" stroke="black" d="M1030.9,-471.027C1147.4,-460.587 1351.95,-440.456 1526,-414 1572.1,-406.992 1583.73,-405.191 1629,-394 1636.54,-392.136 1644.52,-389.921 1652.18,-387.674"/>
</g>
<!-- ActiveRecord::Base&#45;&gt;Redirection -->
<g id="edge104" class="edge"><title>ActiveRecord::Base&#45;&gt;Redirection</title>
<path fill="none" stroke="black" d="M1027.42,-469.846C1094.36,-459.647 1185.45,-438.312 1254,-394 1312.33,-356.291 1336.85,-346.352 1363,-282 1369.36,-266.353 1369.66,-259.519 1363,-244 1356.03,-227.761 1341.9,-213.968 1329.11,-204.02"/>
</g>
<!-- ActionController::Caching::Sweeper -->
<g id="node39" class="node"><title>ActionController::Caching::Sweeper</title>
<ellipse fill="none" stroke="black" cx="1855" cy="-479" rx="185.969" ry="18.3848"/>
<text text-anchor="middle" x="1855" y="-475.4" font-family="Times Roman,serif" font-size="14.00">ActionController::Caching::Sweeper</text>
</g>
<!-- ActionController::Caching::Sweeper&#45;&gt;BlogSweeper -->
<g id="edge10" class="edge"><title>ActionController::Caching::Sweeper&#45;&gt;BlogSweeper</title>
<path fill="none" stroke="black" d="M1855,-460.407C1855,-441.36 1855,-411.943 1855,-393.084"/>
</g>
<!-- ActiveRecord::Observer -->
<g id="node68" class="node"><title>ActiveRecord::Observer</title>
<ellipse fill="none" stroke="black" cx="2317" cy="-479" rx="125.865" ry="18.3848"/>
<text text-anchor="middle" x="2317" y="-475.4" font-family="Times Roman,serif" font-size="14.00">ActiveRecord::Observer</text>
</g>
<!-- ActiveRecord::Observer&#45;&gt;EmailNotifier -->
<g id="edge66" class="edge"><title>ActiveRecord::Observer&#45;&gt;EmailNotifier</title>
<path fill="none" stroke="black" d="M2306.45,-460.407C2295.65,-441.36 2278.96,-411.943 2268.26,-393.084"/>
</g>
<!-- ActiveRecord::Observer&#45;&gt;WebNotifier -->
<g id="edge88" class="edge"><title>ActiveRecord::Observer&#45;&gt;WebNotifier</title>
<path fill="none" stroke="black" d="M2327.73,-460.407C2338.72,-441.36 2355.69,-411.943 2366.57,-393.084"/>
</g>
<!-- ActionMailer::Base -->
<g id="node81" class="node"><title>ActionMailer::Base</title>
<ellipse fill="none" stroke="black" cx="2715" cy="-479" rx="101.823" ry="18.3848"/>
<text text-anchor="middle" x="2715" y="-475.4" font-family="Times Roman,serif" font-size="14.00">ActionMailer::Base</text>
</g>
<!-- ActionMailer::Base&#45;&gt;NotificationMailer -->
<g id="edge90" class="edge"><title>ActionMailer::Base&#45;&gt;NotificationMailer</title>
<path fill="none" stroke="black" d="M2715,-460.407C2715,-441.36 2715,-411.943 2715,-393.084"/>
</g>
</g>
</svg>
